# xmcd CD database file
#
# Track frame offsets:
#	150
#	18985
#	33665
#	51182
#	70378
#	84378
#	100570
#	120801
#	135009
#	150867
#	172548
#	187805
#	204167
#
# Disc length: 2936 seconds
#
# Revision: 1
# Processed by: cddbd v1.4PL0 Copyright (c) Steve Scherf et al.
# Submitted via: CDex 1.50
#
DISCID=830b760d
DTITLE=Various Artist - Urban Street Anthems Vol. 1
DYEAR=2002
DGENRE=Jazz
TTITLE0=Divine Earth Essence-Beat Goes On
TTITLE1=Metropolis-Dance All Night
TTITLE2=Derrick Dixon-Slow It Down
TTITLE3=Jaya-I'm Leavin' You(David Caren Remix)
TTITLE4=Lana Burton-BOP
TTITLE5=Lafayette Reed-Miss My Flight
TTITLE6=Danny Mosley-Get Over
TTITLE7=Shafer Yost-Fantasize
TTITLE8=EXYT-Nobody
TTITLE9=Nikki-Body's Fool
TTITLE10=Flower Girl-Callin All Playas
TTITLE11=Kornastone-Shake It Up
TTITLE12=Kiesha-Esta Todo Sombre Mi
EXTD=YEAR: 2002
EXTT0=
EXTT1=
EXTT2=
EXTT3=
EXTT4=
EXTT5=
EXTT6=
EXTT7=
EXTT8=
EXTT9=
EXTT10=
EXTT11=
EXTT12=
PLAYORDER=
